<svg width="783" height="488" viewBox="0 0 783 488" fill="none" xmlns="http://www.w3.org/2000/svg">
<path d="M355.662 84.1131C491.806 88.0701 599.881 105.196 712.778 168.879C655.031 85.4733 565.196 24.3876 457.368 5.77751C381.629 -7.32995 307.313 2.37699 241.157 29.7048C258.716 56.7853 292.103 82.1964 355.662 84.0513V84.1131Z" fill="#232c3b"/>
<path d="M318.934 427.564C369.942 450.625 412.417 487.846 445.062 538.112C478.882 590.17 491.495 646.434 492.979 698.987C494.03 736.084 532.858 759.269 565.997 742.637C566.368 742.452 566.677 742.266 567.048 742.143C583.309 733.92 591.099 715 585.535 697.689C549.366 585.41 480.304 430.531 382.369 386.387C281.899 341.129 144.271 353.123 38.7313 375.01C14.3094 380.08 -2.07491 402.771 0.212715 427.564C0.212715 427.811 0.212715 428.058 0.274542 428.306C1.51109 441.537 15.6696 449.265 27.6023 443.515C56.785 429.357 89.5536 417.857 125.908 411.118C161.954 404.44 236.951 390.591 318.996 427.626L318.934 427.564Z" fill="#EF5146"/>
<path d="M412.417 319.677C543.553 378.784 620.59 565.627 656.636 680.008C656.883 679.761 657.13 679.575 657.378 679.328C699.111 640.686 708.509 578.363 681.738 528.221C650.576 469.918 610.821 407.657 561.483 350.899C483.642 261.435 371.487 258.096 252.778 254.572C190.332 252.717 126.526 250.801 68.284 234.849C49.0556 229.594 28.9616 239.795 22.1606 258.591C22.0369 258.838 21.9751 259.147 21.8514 259.395C14.3085 280.292 32.2385 301.376 54.0636 297.48C167.579 277.448 305.702 271.575 412.478 319.677H412.417Z" fill="#232c3b"/>
<path d="M254.88 181.492C378.103 185.14 517.709 189.344 616.572 302.921C662.633 355.846 700.657 412.542 731.633 466.888C742.947 486.797 773.057 481.418 776.953 458.85C779.487 444.321 781.157 429.792 782.022 415.448C786.35 343.047 748.697 274.666 686.128 237.94C581.886 176.731 483.58 161.027 353.619 157.255C284.928 155.277 239.609 132.71 209.684 105.258C185.2 82.753 147.176 83.2476 122.878 105.938C114.655 113.667 106.741 121.704 99.1363 130.113C86.4616 144.21 94.3756 166.715 112.986 170.239C156.451 178.586 204.923 180.008 254.942 181.492H254.88Z" fill="#232c3b"/>
<path d="M207.21 544.85C273.427 576.011 281.774 655.336 289.194 725.387C289.812 731.322 290.43 737.258 291.11 743.193C293.089 760.752 306.196 775.282 323.632 778.311C323.755 778.311 323.817 778.311 323.941 778.311C345.704 782.083 367.344 783.876 388.674 784C402.214 784.061 413.9 774.416 415.94 761C424.287 704.798 421.937 636.479 383.852 577.804C358.935 539.471 326.97 511.278 288.946 494.09C227.799 466.453 170.175 477.087 139.262 482.837C94.1274 491.184 55.5469 508.805 23.582 529.393C26.3024 536.627 29.2083 543.861 32.2997 550.909C82.1328 531.99 149.525 517.646 207.272 544.85H207.21Z" fill="#232c3b"/>
</svg>
