<svg width="550" height="551" viewBox="0 0 550 551" fill="none" xmlns="http://www.w3.org/2000/svg">
<g clip-path="url(#clip0_108_58)">
<path d="M249.953 59.0965C345.595 61.8745 421.558 73.9034 500.902 118.665C460.287 60.0662 397.163 17.1393 321.383 4.06207C268.19 -5.13655 215.941 1.67724 169.482 20.8869C181.824 39.9131 205.276 57.7862 249.953 59.0965Z" fill="#232C3A"/>
<path d="M224.143 300.462C259.989 316.658 289.835 342.812 312.763 378.139C336.529 414.724 345.386 454.27 346.408 491.17C347.141 517.219 374.419 533.52 397.714 521.858C397.95 521.727 398.185 521.622 398.447 521.491C409.872 515.726 415.375 502.412 411.444 490.252C386.027 411.343 337.499 302.506 268.689 271.503C198.123 239.688 101.407 248.153 27.2255 263.484C10.0885 267.022 -1.44093 283.008 0.15747 300.436C0.15747 300.593 0.183673 300.777 0.209877 300.934C1.07459 310.211 11.0056 315.688 19.3907 311.6C39.9079 301.641 62.9143 293.543 88.4626 288.826C113.801 284.135 166.496 274.386 224.143 300.436V300.462Z" fill="#EF5146"/>
<path d="M289.782 224.646C381.913 266.157 436.049 397.506 461.361 477.857C461.519 477.699 461.702 477.542 461.859 477.385C491.154 450.208 497.784 406.417 478.97 371.168C457.064 330.181 429.157 286.441 394.464 246.554C339.778 183.684 260.985 181.352 177.553 178.862C133.663 177.552 88.8553 176.215 47.9258 164.999C34.4049 161.303 20.2813 168.484 15.5123 181.666C15.4337 181.85 15.3813 182.059 15.3027 182.243C10.0096 196.919 22.6134 211.726 37.9423 209.026C117.705 194.953 214.788 190.839 289.782 224.619V224.646Z" fill="#232C3A"/>
<path d="M179.1 127.523C265.675 130.091 363.78 133.026 433.219 212.852C465.554 250.04 492.308 289.875 514.056 328.084C522.022 342.079 543.168 338.279 545.92 322.423C547.675 312.203 548.854 302.008 549.457 291.892C552.523 241.025 526.031 192.988 482.088 167.174C408.85 124.168 339.752 113.109 248.434 110.462C200.167 109.047 168.304 93.218 147.315 73.9297C130.126 58.1269 103.372 58.4414 86.3138 74.4014C80.5229 79.8262 74.9416 85.4869 69.6223 91.3835C60.7132 101.29 66.2683 117.092 79.3437 119.582C109.897 125.426 143.961 126.448 179.073 127.497L179.1 127.523Z" fill="#232C3A"/>
<path d="M152.923 522.749C152.661 520.207 152.372 517.691 152.11 515.175C148.154 477.699 144.092 438.966 123.732 429.4C102.01 419.179 73.2123 423.897 48.1357 432.466C74.4701 470.466 110.316 501.81 152.923 522.749Z" fill="#232C3A"/>
<path d="M145.611 382.883C192.148 404.766 198.018 460.534 203.206 509.75C203.652 513.917 204.097 518.11 204.543 522.277C205.931 534.621 215.129 544.841 227.392 546.964C227.47 546.964 227.523 546.964 227.602 546.99C242.878 549.637 258.076 550.921 273.09 550.974C282.602 551.026 290.83 544.239 292.219 534.83C298.088 495.363 296.438 447.352 269.658 406.102C252.154 379.135 229.698 359.349 202.944 347.268C159.971 327.848 119.487 335.317 97.7642 339.353C66.0582 345.224 38.9378 357.593 16.5078 372.059C18.4207 377.17 20.4383 382.201 22.6394 387.181C57.6732 373.894 105.023 363.83 145.585 382.909L145.611 382.883Z" fill="#232C3A"/>
</g>
<defs>
<clipPath id="clip0_108_58">
<rect width="550" height="551" fill="white"/>
</clipPath>
</defs>
</svg>
